<svg xmlns="http://www.w3.org/2000/svg" width="245" height="35" viewBox="0 0 245 35"><defs>
<style>
</style>
<style>

.g{color: pink !important}.a,.c{fill:#fff;font-family:MontserratBold;}.a{font-size:24px;font-family:MontserratBold, Montserrat;font-weight:700;}.b{fill:none;}</style></defs><g transform="translate(-58 -40)"><g transform="translate(50 39)"><text class="a" transform="translate(50 5)"><tspan className="j" x="0" y="23">MAGICKOBO</tspan></text></g><g transform="translate(-1018 2927)"><circle class="b" cx="17.5" cy="17.5" r="17.5" transform="translate(1076 -2887)"/><circle class="c" cx="6.5" cy="6.5" r="6.5" transform="translate(1087 -2876)"/><circle class="c" cx="3.5" cy="3.5" r="3.5" transform="translate(1090 -2885)"/><circle class="c" cx="3.5" cy="3.5" r="3.5" transform="translate(1090 -2861)"/><circle class="c" cx="3.5" cy="3.5" r="3.5" transform="translate(1102 -2873)"/><circle class="c" cx="3.5" cy="3.5" r="3.5" transform="translate(1078 -2873)"/><circle class="c" cx="3.5" cy="3.5" r="3.5" transform="translate(1098 -2882)"/><circle class="c" cx="3.5" cy="3.5" r="3.5" transform="translate(1081 -2882)"/><circle class="c" cx="3.5" cy="3.5" r="3.5" transform="translate(1081 -2864)"/><circle class="c" cx="3.5" cy="3.5" r="3.5" transform="translate(1099 -2864)"/></g></g></svg>